<svg xmlns="http://www.w3.org/2000/svg" viewBox="0 0 20.8 22.8"><defs><style>.cls-1{fill:#fff;}</style></defs><title>Asset 4</title><g id="Layer_2" data-name="Layer 2"><g id="Layer_1-2" data-name="Layer 1"><path class="cls-1" d="M9.12,5a5.77,5.77,0,1,0,5.78,5.77A5.77,5.77,0,0,0,9.12,5Zm0,10.72a5,5,0,1,1,5-4.95A4.95,4.95,0,0,1,9.12,15.67Z"/><rect class="cls-1" x="6.32" y="10.16" width="5.61" height="1.12"/><rect class="cls-1" x="8.56" y="7.92" width="1.12" height="5.61"/><path class="cls-1" d="M18.3,2.5V0H3.23L0,3.05V20.3H2.5v2.5H20.8V2.5Zm-15-1.42v2H1.17ZM.8,3.85H4.05V.8H17.5V19.5H.8ZM20,22H3.3V20.3h15V3.3H20Z"/></g></g></svg>