<svg xmlns="http://www.w3.org/2000/svg" viewBox="0 0 25.09 25"><defs><style>.cls-1{fill:#fff;}</style></defs><title>Asset 2</title><g id="Layer_2" data-name="Layer 2"><g id="Layer_1-2" data-name="Layer 1"><rect class="cls-1" x="8.48" y="4.76" width="5.23" height="1.26"/><rect class="cls-1" x="8.48" y="8.62" width="9.12" height="1.26"/><rect class="cls-1" x="8.48" y="2.68" width="9.12" height="1.26"/><rect class="cls-1" x="8.48" y="10.69" width="5.23" height="1.26"/><path class="cls-1" d="M11.4,19.68H.9V.9H19.68V11.28a9.37,9.37,0,0,1,.9.28V.31A.31.31,0,0,0,20.27,0H.31A.31.31,0,0,0,0,.31v20a.31.31,0,0,0,.31.31H11.69A5.89,5.89,0,0,1,11.4,19.68Z"/><path class="cls-1" d="M8.48,16.63v1.26h2.71a7.48,7.48,0,0,1,.14-1.26Z"/><path class="cls-1" d="M8.48,15.82h3.07a6.93,6.93,0,0,1,.57-1.27H8.48Z"/><polygon class="cls-1" points="7.04 2.46 6.19 1.61 3.77 4.03 3.02 3.28 2.16 4.13 3.77 5.73 7.04 2.46"/><polygon class="cls-1" points="3.77 9.85 3.02 9.1 2.16 9.95 3.77 11.55 7.04 8.29 6.19 7.43 3.77 9.85"/><path class="cls-1" d="M2.57,17.8H5.73V14.64H2.57Zm.56-2.59h2v2h-2Z"/><path class="cls-1" d="M18.86,12.55a6.23,6.23,0,1,0,6.23,6.22A6.21,6.21,0,0,0,18.86,12.55Zm0,11.56a5.34,5.34,0,1,1,5.34-5.34A5.33,5.33,0,0,1,18.86,24.11Z"/><polygon class="cls-1" points="17.57 15.72 21.75 18.77 17.57 21.82 17.57 15.72"/></g></g></svg>